<?xml version="1.0" standalone="no"?>
<!DOCTYPE svg PUBLIC "-//W3C//DTD SVG 20010904//EN"
 "http://www.w3.org/TR/2001/REC-SVG-20010904/DTD/svg10.dtd">
<svg version="1.0" xmlns="http://www.w3.org/2000/svg"
 width="512.000000pt" height="512.000000pt" viewBox="0 0 512.000000 512.000000"
 preserveAspectRatio="xMidYMid meet">

<g transform="translate(0.000000,512.000000) scale(0.100000,-0.100000)"
fill="#000000" stroke="none">
<path d="M2351 5109 c-345 -37 -690 -174 -979 -391 -98 -74 -115 -98 -105
-148 13 -68 82 -68 167 -1 289 229 651 370 1004 389 420 24 789 -76 1133 -306
454 -304 757 -832 787 -1370 9 -161 -2 -342 -28 -472 -45 -223 -143 -461 -261
-637 -61 -91 -942 -1297 -973 -1332 -49 -54 -244 -129 -395 -152 -108 -15
-282 -6 -383 20 -89 23 -213 73 -260 104 -29 20 -866 1150 -1004 1356 -214
319 -316 705 -293 1111 21 356 160 716 390 1006 67 85 67 154 -1 167 -50 10
-74 -7 -148 -105 -407 -542 -511 -1234 -280 -1868 40 -111 134 -297 201 -396
29 -43 374 -517 766 -1052 799 -1089 746 -1027 871 -1027 124 0 72 -62 871
1027 392 535 737 1009 766 1052 326 487 410 1124 222 1691 -288 872 -1152
1429 -2068 1334z"/>
<path d="M2350 4813 c-19 -2 -87 -16 -150 -30 -313 -69 -586 -219 -815 -448
-231 -231 -384 -512 -457 -840 -19 -88 -22 -129 -22 -335 -1 -224 1 -241 28
-355 77 -328 222 -591 451 -820 228 -228 496 -375 820 -451 114 -27 132 -29
355 -29 223 0 241 2 355 29 328 77 591 222 820 451 229 229 374 492 451 820
27 114 29 132 29 355 0 223 -2 241 -29 355 -77 328 -222 591 -451 820 -232
231 -516 386 -840 456 -81 18 -139 22 -305 24 -113 2 -221 1 -240 -2z m501
-172 c611 -123 1080 -600 1195 -1216 26 -138 26 -392 0 -530 -116 -624 -597
-1105 -1221 -1221 -138 -26 -392 -26 -530 0 -624 116 -1105 597 -1221 1221
-26 138 -26 392 0 530 88 474 383 867 813 1084 157 79 307 123 528 155 70 10
344 -4 436 -23z"/>
<path d="M2445 4499 c-67 -21 -141 -71 -178 -121 -31 -41 -871 -1495 -903
-1562 -88 -188 16 -426 219 -502 50 -18 86 -19 977 -19 891 0 927 1 977 19
198 74 305 308 224 492 -24 54 -876 1530 -908 1572 -60 80 -191 143 -297 141
-28 0 -78 -9 -111 -20z m213 -153 c16 -8 43 -28 58 -44 22 -22 841 -1428 905
-1552 7 -14 13 -50 13 -80 1 -109 -69 -197 -175 -219 -33 -7 -335 -11 -908
-11 -963 0 -929 -2 -1001 70 -71 71 -85 171 -38 263 28 56 837 1456 863 1494
47 70 120 106 201 99 29 -2 65 -11 82 -20z"/>
<path d="M2463 4046 c-63 -30 -107 -86 -122 -157 -14 -63 -14 -459 0 -519 14
-62 54 -116 108 -148 38 -22 58 -27 111 -27 74 1 111 17 164 71 58 59 61 80
61 374 l0 265 -28 47 c-64 109 -181 146 -294 94z"/>
<path d="M2470 3024 c-130 -56 -174 -219 -93 -337 86 -124 280 -124 366 0 105
153 0 354 -185 353 -29 -1 -69 -8 -88 -16z"/>
</g>
</svg>
