<svg xmlns="http://www.w3.org/2000/svg" xmlns:xlink="http://www.w3.org/1999/xlink" version="1.1" width="1000" height="1000" viewBox="0 0 1000 1000" xml:space="preserve">
<desc>Created with Fabric.js 3.5.0</desc>
<defs>
</defs>
<rect x="0" y="0" width="100%" height="100%" fill="rgba(255,255,255,0)"/>
<g transform="matrix(1.43 0 0 1.4309 500 500)" id="215300">
<g style="" vector-effect="non-scaling-stroke">
		<g transform="matrix(33.3333 0 0 33.3333 -0.0003 -3.2712)">
<path style="stroke: rgb(190,190,190); stroke-width: 1.5; stroke-dasharray: none; stroke-linecap: round; stroke-dashoffset: 0; stroke-linejoin: round; stroke-miterlimit: 4; is-custom-font: none; font-file-url: none; fill: none; fill-rule: nonzero; opacity: 1;" transform=" translate(-12, -11.9019)" d="M 12.8159 20.6077 C 16.8509 18.5502 20 15.1429 20 11 C 20 6.58172 16.4183 3 12 3 C 7.58172 3 4 6.58172 4 11 C 4 15.1429 7.14909 18.5502 11.1841 20.6077 C 11.6968 20.8691 12.3032 20.8691 12.8159 20.6077 Z" stroke-linecap="round"/>
</g>
		<g transform="matrix(33.3333 0 0 33.3333 -0.0001 -33.3334)">
<path style="stroke: rgb(190,190,190); stroke-width: 1.5; stroke-dasharray: none; stroke-linecap: round; stroke-dashoffset: 0; stroke-linejoin: round; stroke-miterlimit: 4; is-custom-font: none; font-file-url: none; fill: none; fill-rule: nonzero; opacity: 1;" transform=" translate(-12, -11)" d="M 15 11 C 15 12.6569 13.6569 14 12 14 C 10.3431 14 9 12.6569 9 11 C 9 9.34315 10.3431 8 12 8 C 13.6569 8 15 9.34315 15 11 Z" stroke-linecap="round"/>
</g>
</g>
</g>
<g transform="matrix(0.9417 0 0 1.05 500.0133 484.3458)" id="805217">
<g style="" vector-effect="non-scaling-stroke">
		<g transform="matrix(26.6667 0 0 26.6667 0.0005 0.0005)" id="dee_c_e">
<rect style="stroke: none; stroke-width: 0; stroke-dasharray: none; stroke-linecap: butt; stroke-dashoffset: 0; stroke-linejoin: miter; stroke-miterlimit: 4; is-custom-font: none; font-file-url: none; fill: rgb(190,190,190); fill-rule: nonzero; opacity: 1;" x="-15" y="-15" rx="38.4" ry="38.4" width="30" height="30"/>
</g>
		<g transform="matrix(26.6667 0 0 26.6667 0.0005 0.0005)">
<rect style="stroke: none; stroke-width: 1; stroke-dasharray: none; stroke-linecap: butt; stroke-dashoffset: 0; stroke-linejoin: miter; stroke-miterlimit: 4; is-custom-font: none; font-file-url: none; fill: rgb(190,190,190); fill-rule: nonzero; opacity: 0;" x="-12" y="-12" rx="0" ry="0" width="24" height="24"/>
</g>
		<g transform="matrix(26.6667 0 0 26.6667 52.4953 -26.2301)">
<path style="stroke: none; stroke-width: 1; stroke-dasharray: none; stroke-linecap: butt; stroke-dashoffset: 0; stroke-linejoin: miter; stroke-miterlimit: 4; is-custom-font: none; font-file-url: none; fill: rgb(190,190,190); fill-rule: nonzero; opacity: 1;" transform=" translate(-13.9686, -11.0164)" d="M 9.71 11.29 a 1 1 0 0 0 -1.42 1.42 l 3 3 A 1 1 0 0 0 12 16 a 1 1 0 0 0 0.72 -0.34 l 7 -8 a 1 1 0 0 0 -1.5 -1.32 L 12 13.54 z" stroke-linecap="round"/>
</g>
		<g transform="matrix(26.6667 0 0 26.6667 0.6891 0.0003)">
<path style="stroke: none; stroke-width: 1; stroke-dasharray: none; stroke-linecap: butt; stroke-dashoffset: 0; stroke-linejoin: miter; stroke-miterlimit: 4; is-custom-font: none; font-file-url: none; fill: rgb(190,190,190); fill-rule: nonzero; opacity: 1;" transform=" translate(-12.0258, -12)" d="M 21 11 a 1 1 0 0 0 -1 1 a 8 8 0 0 1 -8 8 A 8 8 0 0 1 6.33 6.36 A 7.93 7.93 0 0 1 12 4 a 8.79 8.79 0 0 1 1.9 0.22 a 1 1 0 1 0 0.47 -1.94 A 10.54 10.54 0 0 0 12 2 a 10 10 0 0 0 -7 17.09 A 9.93 9.93 0 0 0 12 22 a 10 10 0 0 0 10 -10 a 1 1 0 0 0 -1 -1 z" stroke-linecap="round"/>
</g>
</g>
</g>
<g transform="matrix(0.9049 0 0 0.9049 500.0195 456.6862)" id="441264">
<g style="" vector-effect="non-scaling-stroke">
		<g transform="matrix(26.6667 0 0 26.6667 0.0005 0.0005)" id="dee_c_e">
<rect style="stroke: none; stroke-width: 0; stroke-dasharray: none; stroke-linecap: butt; stroke-dashoffset: 0; stroke-linejoin: miter; stroke-miterlimit: 4; is-custom-font: none; font-file-url: none; fill: rgb(0,152,36); fill-rule: nonzero; opacity: 1;" x="-15" y="-15" rx="38.4" ry="38.4" width="30" height="30"/>
</g>
		<g transform="matrix(26.6667 0 0 26.6667 0.0005 0.0005)">
<rect style="stroke: none; stroke-width: 1; stroke-dasharray: none; stroke-linecap: butt; stroke-dashoffset: 0; stroke-linejoin: miter; stroke-miterlimit: 4; is-custom-font: none; font-file-url: none; fill: rgb(254,254,254); fill-rule: nonzero; opacity: 0;" x="-12" y="-12" rx="0" ry="0" width="24" height="24"/>
</g>
		<g transform="matrix(26.6667 0 0 26.6667 52.4953 -26.2301)">
<path style="stroke: none; stroke-width: 1; stroke-dasharray: none; stroke-linecap: butt; stroke-dashoffset: 0; stroke-linejoin: miter; stroke-miterlimit: 4; is-custom-font: none; font-file-url: none; fill: rgb(254,254,254); fill-rule: nonzero; opacity: 1;" transform=" translate(-13.9686, -11.0164)" d="M 9.71 11.29 a 1 1 0 0 0 -1.42 1.42 l 3 3 A 1 1 0 0 0 12 16 a 1 1 0 0 0 0.72 -0.34 l 7 -8 a 1 1 0 0 0 -1.5 -1.32 L 12 13.54 z" stroke-linecap="round"/>
</g>
		<g transform="matrix(26.6667 0 0 26.6667 0.6891 0.0003)">
<path style="stroke: none; stroke-width: 1; stroke-dasharray: none; stroke-linecap: butt; stroke-dashoffset: 0; stroke-linejoin: miter; stroke-miterlimit: 4; is-custom-font: none; font-file-url: none; fill: rgb(254,254,254); fill-rule: nonzero; opacity: 1;" transform=" translate(-12.0258, -12)" d="M 21 11 a 1 1 0 0 0 -1 1 a 8 8 0 0 1 -8 8 A 8 8 0 0 1 6.33 6.36 A 7.93 7.93 0 0 1 12 4 a 8.79 8.79 0 0 1 1.9 0.22 a 1 1 0 1 0 0.47 -1.94 A 10.54 10.54 0 0 0 12 2 a 10 10 0 0 0 -7 17.09 A 9.93 9.93 0 0 0 12 22 a 10 10 0 0 0 10 -10 a 1 1 0 0 0 -1 -1 z" stroke-linecap="round"/>
</g>
</g>
</g>
</svg>