<svg xmlns="http://www.w3.org/2000/svg" xmlns:xlink="http://www.w3.org/1999/xlink" version="1.1" width="1000" height="1000" viewBox="0 0 1000 1000" xml:space="preserve">
<desc>Created with Fabric.js 3.5.0</desc>
<defs>
</defs>
<rect x="0" y="0" width="100%" height="100%" fill="rgba(255,255,255,0)"/>
<g transform="matrix(37.8788 0 0 37.8788 500.0001 500.0001)" id="760189">
<g style="" vector-effect="non-scaling-stroke">
		<g transform="matrix(1 0 0 1 0.0311 0)">
<path style="stroke: none; stroke-width: 1; stroke-dasharray: none; stroke-linecap: butt; stroke-dashoffset: 0; stroke-linejoin: miter; stroke-miterlimit: 4; is-custom-font: none; font-file-url: none; fill: rgb(0,103,24); fill-rule: nonzero; opacity: 1;" transform=" translate(-12.0311, -1040.4)" d="m 12.031 1030.4 c -3.8657 0 -6.9998 3.1 -6.9998 7 c 0 1.3 0.4017 2.6 1.0938 3.7 c 0.0334 0.1 0.059 0.1 0.0938 0.2 l 4.3432 8 c 0.204 0.6 0.782 1.1 1.438 1.1 s 1.202 -0.5 1.406 -1.1 l 4.844 -8.7 c 0.499 -1 0.781 -2.1 0.781 -3.2 c 0 -3.9 -3.134 -7 -7 -7 z m -0.031 3.9 c 1.933 0 3.5 1.6 3.5 3.5 c 0 2 -1.567 3.5 -3.5 3.5 s -3.5 -1.5 -3.5 -3.5 c 0 -1.9 1.567 -3.5 3.5 -3.5 z" stroke-linecap="round"/>
</g>
		<g transform="matrix(1 0 0 1 0.0311 -0.9689)">
<path style="stroke: none; stroke-width: 1; stroke-dasharray: none; stroke-linecap: butt; stroke-dashoffset: 0; stroke-linejoin: miter; stroke-miterlimit: 4; is-custom-font: none; font-file-url: none; fill: rgb(0,152,36); fill-rule: nonzero; opacity: 1;" transform=" translate(-12.0311, -11.0311)" d="m 12.031 1.0312 c -3.8657 0 -6.9998 3.134 -6.9998 7 c 0 1.383 0.4017 2.6648 1.0938 3.7498 c 0.0334 0.053 0.059 0.105 0.0938 0.157 l 4.3432 8.062 c 0.204 0.586 0.782 1.031 1.438 1.031 s 1.202 -0.445 1.406 -1.031 l 4.844 -8.75 c 0.499 -0.963 0.781 -2.06 0.781 -3.2188 c 0 -3.866 -3.134 -7 -7 -7 z m -0.031 3.9688 c 1.933 0 3.5 1.567 3.5 3.5 s -1.567 3.5 -3.5 3.5 s -3.5 -1.567 -3.5 -3.5 s 1.567 -3.5 3.5 -3.5 z" stroke-linecap="round"/>
</g>
</g>
</g>
<g transform="matrix(0.5008 0 0 0.5008 500.0076 356.1663)" id="962513">
<g style="" vector-effect="non-scaling-stroke">
		<g transform="matrix(26.6667 0 0 26.6667 0.0005 0.0005)" id="dee_c_e">
<rect style="stroke: none; stroke-width: 0; stroke-dasharray: none; stroke-linecap: butt; stroke-dashoffset: 0; stroke-linejoin: miter; stroke-miterlimit: 4; is-custom-font: none; font-file-url: none; fill: rgb(255,255,255); fill-rule: nonzero; opacity: 1;" x="-15" y="-15" rx="38.4" ry="38.4" width="30" height="30"/>
</g>
		<g transform="matrix(26.6667 0 0 26.6667 0.0005 0.0005)">
<rect style="stroke: none; stroke-width: 1; stroke-dasharray: none; stroke-linecap: butt; stroke-dashoffset: 0; stroke-linejoin: miter; stroke-miterlimit: 4; is-custom-font: none; font-file-url: none; fill: rgb(0,152,36); fill-rule: nonzero; opacity: 0;" x="-12" y="-12" rx="0" ry="0" width="24" height="24"/>
</g>
		<g transform="matrix(26.6667 0 0 26.6667 52.4953 -26.2301)">
<path style="stroke: none; stroke-width: 1; stroke-dasharray: none; stroke-linecap: butt; stroke-dashoffset: 0; stroke-linejoin: miter; stroke-miterlimit: 4; is-custom-font: none; font-file-url: none; fill: rgb(0,152,36); fill-rule: nonzero; opacity: 1;" transform=" translate(-13.9686, -11.0164)" d="M 9.71 11.29 a 1 1 0 0 0 -1.42 1.42 l 3 3 A 1 1 0 0 0 12 16 a 1 1 0 0 0 0.72 -0.34 l 7 -8 a 1 1 0 0 0 -1.5 -1.32 L 12 13.54 z" stroke-linecap="round"/>
</g>
		<g transform="matrix(26.6667 0 0 26.6667 0.6891 0.0003)">
<path style="stroke: none; stroke-width: 1; stroke-dasharray: none; stroke-linecap: butt; stroke-dashoffset: 0; stroke-linejoin: miter; stroke-miterlimit: 4; is-custom-font: none; font-file-url: none; fill: rgb(0,152,36); fill-rule: nonzero; opacity: 1;" transform=" translate(-12.0258, -12)" d="M 21 11 a 1 1 0 0 0 -1 1 a 8 8 0 0 1 -8 8 A 8 8 0 0 1 6.33 6.36 A 7.93 7.93 0 0 1 12 4 a 8.79 8.79 0 0 1 1.9 0.22 a 1 1 0 1 0 0.47 -1.94 A 10.54 10.54 0 0 0 12 2 a 10 10 0 0 0 -7 17.09 A 9.93 9.93 0 0 0 12 22 a 10 10 0 0 0 10 -10 a 1 1 0 0 0 -1 -1 z" stroke-linecap="round"/>
</g>
</g>
</g>
</svg>